<svg width="21" height="21" viewBox="0 0 21 21" fill="none" xmlns="http://www.w3.org/2000/svg">
<path d="M17.9426 5.73466C17.9426 5.81799 17.926 5.9005 17.8938 5.97748C17.8616 6.05446 17.8143 6.12439 17.7548 6.18327C17.6952 6.24216 17.6246 6.28885 17.5468 6.32066C17.469 6.35248 17.3856 6.3688 17.3015 6.36869H14.7418C14.5719 6.36869 14.4091 6.30189 14.289 6.18299C14.1689 6.06408 14.1014 5.90281 14.1014 5.73466V3.20012C14.1014 2.84958 14.3878 2.56608 14.7418 2.56608H17.3015C17.6555 2.56608 17.9418 2.84958 17.9418 3.20012L17.9426 5.73466ZM17.9426 17.1417C17.9426 17.5859 17.7509 17.7757 17.3015 17.7757H3.2223C2.77366 17.7757 2.58197 17.5859 2.58197 17.1417V8.27L4.17669 8.61408C4.00163 9.17745 3.91282 9.76361 3.91321 10.353C3.91321 13.7227 6.7633 16.4592 10.2758 16.4592C13.7915 16.4592 16.6399 13.7243 16.6399 10.353C16.6399 9.74727 16.5478 9.16573 16.3765 8.61408L17.941 8.27V17.1417H17.9426ZM10.2766 6.18858C12.5475 6.18858 14.3878 7.955 14.3878 10.1333C14.3878 12.3117 12.5475 14.0781 10.2766 14.0781C8.00645 14.0781 6.16539 12.3101 6.16539 10.1333C6.16539 7.95339 8.00645 6.18858 10.2766 6.18858ZM17.9418 0.0323486H2.58279C1.13572 0.0323486 0.0214539 1.13566 0.0214539 2.56769V17.7757C0.0214539 19.207 1.13572 20.3103 2.58197 20.3103H17.941C19.3864 20.3103 20.5007 19.207 20.5007 17.7757V2.56689C20.5023 1.13485 19.3864 0.0323486 17.9426 0.0323486H17.9418Z" fill="white"/>
</svg>
