<svg width="22" height="18" viewBox="0 0 22 18" fill="none" xmlns="http://www.w3.org/2000/svg">
<path d="M21.0379 2.40885C20.9462 2.56068 20.4759 3.09363 19.9732 3.58041C19.1212 4.41781 19.0754 4.50859 19.0754 5.20902C19.0754 6.28902 18.5593 8.54294 18.0423 9.77476C17.0836 12.0889 15.031 14.479 12.9776 15.6835C10.0888 17.3723 6.24121 17.7996 3.00145 16.8096C1.92258 16.4731 0.0667725 15.6208 0.0667725 15.4698C0.0667725 15.4228 0.628731 15.3634 1.31478 15.3469C2.74725 15.3171 4.14894 14.9298 5.38997 14.2208L6.21038 13.7332L5.26746 13.4139C3.92856 12.9568 2.72798 11.9066 2.42368 10.9174C2.332 10.5973 2.36282 10.5816 3.21406 10.5816L4.09454 10.5668L3.35 10.2162C2.46715 9.77398 1.66097 9.02972 1.26657 8.26746C0.978079 7.71963 0.612924 6.33441 0.718835 6.22798C0.75045 6.18259 1.06976 6.27494 1.43334 6.39624C2.48217 6.77737 2.6189 6.68581 2.0111 6.04563C0.871378 4.88815 0.52124 3.16876 1.06818 1.53937L1.32664 0.809198L2.33042 1.79842C4.38461 3.7925 6.80238 4.9805 9.5687 5.32955L10.329 5.42033L10.2832 4.67372C10.1465 2.74068 11.3478 0.974328 13.2487 0.289546C13.9482 0.0453717 15.1353 0.0156326 15.9107 0.227719C16.215 0.318502 16.792 0.623719 17.203 0.897632L17.9483 1.40007L18.7687 1.14024C19.2255 1.00407 19.8333 0.774763 20.1068 0.622937C20.3653 0.485198 20.5929 0.409285 20.5929 0.454676C20.5929 0.712937 20.0301 1.59728 19.5599 2.08407C18.9197 2.76885 19.103 2.82989 20.3953 2.37363C21.1738 2.11928 21.1896 2.11928 21.0379 2.40885Z" fill="white"/>
</svg>
